<svg xmlns="http://www.w3.org/2000/svg" width="20.708" height="20.708" viewBox="0 0 20.708 20.708">
  <path id="Icon_simple-instagram" data-name="Icon simple-instagram" d="M10.354,0C7.541,0,7.19.013,6.086.062A7.635,7.635,0,0,0,3.572.544,5.07,5.07,0,0,0,1.738,1.738,5.052,5.052,0,0,0,.544,3.572,7.613,7.613,0,0,0,.062,6.086C.01,7.19,0,7.541,0,10.354s.013,3.164.062,4.268a7.64,7.64,0,0,0,.481,2.513A5.078,5.078,0,0,0,1.738,18.97a5.063,5.063,0,0,0,1.834,1.194,7.644,7.644,0,0,0,2.513.481c1.1.052,1.456.062,4.268.062s3.164-.013,4.268-.062a7.662,7.662,0,0,0,2.513-.481,5.292,5.292,0,0,0,3.029-3.029,7.64,7.64,0,0,0,.481-2.513c.052-1.1.062-1.456.062-4.268S20.7,7.19,20.646,6.086a7.657,7.657,0,0,0-.481-2.513A5.082,5.082,0,0,0,18.97,1.738,5.045,5.045,0,0,0,17.136.544,7.617,7.617,0,0,0,14.623.062C13.518.01,13.167,0,10.354,0Zm0,1.864c2.764,0,3.093.014,4.185.061a5.7,5.7,0,0,1,1.922.358,3.407,3.407,0,0,1,1.966,1.965,5.717,5.717,0,0,1,.356,1.922c.049,1.092.06,1.42.06,4.185s-.013,3.093-.064,4.185a5.827,5.827,0,0,1-.363,1.922,3.288,3.288,0,0,1-.776,1.192,3.23,3.23,0,0,1-1.191.773,5.759,5.759,0,0,1-1.928.356c-1.1.049-1.423.06-4.193.06s-3.094-.013-4.193-.064a5.871,5.871,0,0,1-1.929-.363,3.206,3.206,0,0,1-1.19-.776,3.144,3.144,0,0,1-.777-1.191,5.876,5.876,0,0,1-.362-1.928c-.039-1.087-.053-1.423-.053-4.18s.014-3.094.053-4.194A5.869,5.869,0,0,1,2.24,4.219a3.069,3.069,0,0,1,.777-1.192,3.063,3.063,0,0,1,1.19-.775A5.731,5.731,0,0,1,6.123,1.89c1.1-.039,1.424-.052,4.193-.052l.039.026Zm0,3.174a5.317,5.317,0,1,0,5.317,5.317A5.316,5.316,0,0,0,10.354,5.037Zm0,8.768a3.451,3.451,0,1,1,3.451-3.451A3.45,3.45,0,0,1,10.354,13.806Zm6.77-8.978a1.242,1.242,0,1,1-1.242-1.242A1.243,1.243,0,0,1,17.124,4.828Z" fill="#393939"/>
</svg>
