<svg xmlns="http://www.w3.org/2000/svg" width="20.708" height="16.819" viewBox="0 0 20.708 16.819">
  <path id="Icon_awesome-twitter" data-name="Icon awesome-twitter" d="M18.58,7.572c.013.184.013.368.013.552A11.993,11.993,0,0,1,6.517,20.2,11.994,11.994,0,0,1,0,18.294a8.78,8.78,0,0,0,1.025.053,8.5,8.5,0,0,0,5.269-1.813A4.252,4.252,0,0,1,2.326,13.59a5.352,5.352,0,0,0,.8.066,4.489,4.489,0,0,0,1.117-.145,4.245,4.245,0,0,1-3.4-4.165V9.294a4.274,4.274,0,0,0,1.918.539A4.25,4.25,0,0,1,1.445,4.156,12.064,12.064,0,0,0,10.2,8.6a4.791,4.791,0,0,1-.105-.972,4.248,4.248,0,0,1,7.345-2.9A8.356,8.356,0,0,0,20.13,3.7a4.233,4.233,0,0,1-1.866,2.339,8.508,8.508,0,0,0,2.444-.657A9.123,9.123,0,0,1,18.58,7.572Z" transform="translate(0 -3.381)" fill="#393939"/>
</svg>
