<svg xmlns="http://www.w3.org/2000/svg" width="18.12" height="18.12" viewBox="0 0 18.12 18.12">
  <path id="Icon_ionic-logo-whatsapp" data-name="Icon ionic-logo-whatsapp" d="M11.474,2.25a8.861,8.861,0,0,0-8.9,8.827,8.735,8.735,0,0,0,1.276,4.558L2.25,20.37l4.925-1.565A8.91,8.91,0,0,0,20.37,11.077,8.861,8.861,0,0,0,11.474,2.25ZM15.9,14.429a2.3,2.3,0,0,1-1.573,1.014c-.417.022-.429.323-2.7-.665a9.281,9.281,0,0,1-3.75-3.546,4.362,4.362,0,0,1-.839-2.364A2.52,2.52,0,0,1,7.9,7.018a.871.871,0,0,1,.616-.259c.179,0,.3-.005.428,0s.331-.028.5.43.584,1.584.637,1.7a.412.412,0,0,1,0,.4,1.545,1.545,0,0,1-.241.367c-.119.127-.25.285-.356.382s-.241.225-.117.456a6.807,6.807,0,0,0,1.2,1.607,6.206,6.206,0,0,0,1.784,1.186c.223.121.356.108.494-.038s.592-.637.752-.856.31-.177.515-.094,1.3.67,1.524.791.372.183.425.279A1.868,1.868,0,0,1,15.9,14.429Z" transform="translate(-2.25 -2.25)" fill="#393939"/>
</svg>
