<svg xmlns="http://www.w3.org/2000/svg" width="22.089" height="15.531" viewBox="0 0 22.089 15.531">
  <path id="Icon_awesome-youtube" data-name="Icon awesome-youtube" d="M22.677,6.93a2.775,2.775,0,0,0-1.953-1.966C19,4.5,12.094,4.5,12.094,4.5s-6.907,0-8.63.465A2.776,2.776,0,0,0,1.512,6.93a29.116,29.116,0,0,0-.462,5.351,29.116,29.116,0,0,0,.462,5.351,2.734,2.734,0,0,0,1.953,1.934c1.723.465,8.63.465,8.63.465s6.907,0,8.63-.465a2.734,2.734,0,0,0,1.953-1.934,29.116,29.116,0,0,0,.462-5.351,29.116,29.116,0,0,0-.462-5.351ZM9.835,15.566V9l5.773,3.284L9.835,15.566Z" transform="translate(-1.05 -4.5)" fill="#393939"/>
</svg>
